<?xml version="1.0" encoding="UTF-8"?>
<svg width="32" height="32" viewBox="0 0 32 32" fill="none" xmlns="http://www.w3.org/2000/svg">
  <circle cx="16" cy="16" r="15" fill="#409EFF" fill-opacity="0.1"/>
  <path d="M16 8C12.13 8 9 11.13 9 15C9 18.87 12.13 22 16 22C19.87 22 23 18.87 23 15C23 11.13 19.87 8 16 8ZM16 20C13.24 20 11 17.76 11 15C11 12.24 13.24 10 16 10C18.76 10 21 12.24 21 15C21 17.76 18.76 20 16 20Z" fill="#409EFF"/>
  <path d="M16 12C14.34 12 13 13.34 13 15C13 16.66 14.34 18 16 18C17.66 18 19 16.66 19 15C19 13.34 17.66 12 16 12ZM16 16C15.45 16 15 15.55 15 15C15 14.45 15.45 14 16 14C16.55 14 17 14.45 17 15C17 15.55 16.55 16 16 16Z" fill="#409EFF"/>
  <path d="M16 24L12 28H20L16 24Z" fill="#409EFF"/>
</svg> 